<svg width="22" height="32" viewBox="0 0 22 32" fill="none" xmlns="http://www.w3.org/2000/svg">
<g clip-path="url(#clip0_1301_46348)">
<path d="M3.75 15.7987L8 14.7987L17.2929 5.50579C17.6834 5.11526 17.6834 4.4821 17.2929 4.09157L15.4571 2.25579C15.0666 1.86526 14.4334 1.86526 14.0429 2.25579L4.75 11.5487L3.75 15.7987Z" stroke="#747488" stroke-width="1.5" stroke-linecap="round" stroke-linejoin="round"/>
<path d="M18.25 15.7988H12.75" stroke="#747488" stroke-width="1.5" stroke-linecap="round" stroke-linejoin="round"/>
</g>
<path d="M1.064 28.5488C0.936 28.5488 0.834667 28.5142 0.76 28.4448C0.690667 28.3702 0.656 28.2715 0.656 28.1488V23.3088C0.656 23.1862 0.690667 23.0902 0.76 23.0208C0.834667 22.9462 0.936 22.9088 1.064 22.9088H4.008C4.13067 22.9088 4.224 22.9382 4.288 22.9968C4.35733 23.0555 4.392 23.1382 4.392 23.2448C4.392 23.3515 4.35733 23.4342 4.288 23.4928C4.224 23.5462 4.13067 23.5728 4.008 23.5728H1.464V25.3488H3.848C3.97067 25.3488 4.064 25.3782 4.128 25.4368C4.19733 25.4955 4.232 25.5782 4.232 25.6848C4.232 25.7915 4.19733 25.8742 4.128 25.9328C4.064 25.9915 3.97067 26.0208 3.848 26.0208H1.464V27.8848H4.008C4.264 27.8848 4.392 27.9942 4.392 28.2128C4.392 28.3195 4.35733 28.4022 4.288 28.4608C4.224 28.5195 4.13067 28.5488 4.008 28.5488H1.064ZM8.43169 22.8688C8.55435 22.8688 8.65302 22.9035 8.72769 22.9728C8.80235 23.0422 8.83969 23.1355 8.83969 23.2528V28.1968C8.83969 28.3195 8.80235 28.4155 8.72769 28.4848C8.65835 28.5542 8.56235 28.5888 8.43969 28.5888C8.31702 28.5888 8.21835 28.5542 8.14369 28.4848C8.07435 28.4155 8.03969 28.3195 8.03969 28.1968V27.8768C7.92235 28.1115 7.75169 28.2928 7.52769 28.4208C7.30369 28.5435 7.04502 28.6048 6.75169 28.6048C6.41569 28.6048 6.11435 28.5195 5.84769 28.3488C5.58635 28.1782 5.38102 27.9382 5.23169 27.6288C5.08769 27.3195 5.01569 26.9648 5.01569 26.5648C5.01569 26.1595 5.08769 25.8048 5.23169 25.5008C5.38102 25.1968 5.58635 24.9622 5.84769 24.7968C6.10902 24.6315 6.41035 24.5488 6.75169 24.5488C7.04502 24.5488 7.30102 24.6128 7.51969 24.7408C7.74369 24.8635 7.91435 25.0395 8.03169 25.2688V23.2368C8.03169 23.1248 8.06635 23.0368 8.13569 22.9728C8.21035 22.9035 8.30902 22.8688 8.43169 22.8688ZM6.94369 27.9648C7.29035 27.9648 7.55969 27.8448 7.75169 27.6048C7.94369 27.3648 8.03969 27.0235 8.03969 26.5808C8.03969 26.1382 7.94369 25.7968 7.75169 25.5568C7.56502 25.3168 7.29569 25.1968 6.94369 25.1968C6.59169 25.1968 6.31702 25.3168 6.11969 25.5568C5.92769 25.7915 5.83169 26.1275 5.83169 26.5648C5.83169 27.0022 5.93035 27.3462 6.12769 27.5968C6.32502 27.8422 6.59702 27.9648 6.94369 27.9648ZM10.3743 28.5888C10.2569 28.5888 10.1583 28.5568 10.0783 28.4928C10.0036 28.4288 9.96625 28.3328 9.96625 28.2048V24.9568C9.96625 24.8288 10.0036 24.7328 10.0783 24.6688C10.1583 24.5995 10.2569 24.5648 10.3743 24.5648C10.4916 24.5648 10.5876 24.5995 10.6623 24.6688C10.7369 24.7328 10.7743 24.8288 10.7743 24.9568V28.2048C10.7743 28.3328 10.7369 28.4288 10.6623 28.4928C10.5876 28.5568 10.4916 28.5888 10.3743 28.5888ZM10.3743 23.7808C10.2196 23.7808 10.0969 23.7382 10.0063 23.6528C9.91558 23.5675 9.87025 23.4555 9.87025 23.3168C9.87025 23.1782 9.91558 23.0688 10.0063 22.9888C10.0969 22.9035 10.2196 22.8608 10.3743 22.8608C10.5236 22.8608 10.6436 22.9035 10.7343 22.9888C10.8303 23.0688 10.8783 23.1782 10.8783 23.3168C10.8783 23.4555 10.8329 23.5675 10.7423 23.6528C10.6516 23.7382 10.5289 23.7808 10.3743 23.7808ZM13.9251 27.9728C14.0425 27.9835 14.1251 28.0155 14.1731 28.0688C14.2265 28.1168 14.2531 28.1862 14.2531 28.2768C14.2531 28.3835 14.2105 28.4662 14.1251 28.5248C14.0451 28.5782 13.9251 28.5995 13.7651 28.5888L13.5491 28.5728C13.1171 28.5408 12.7945 28.4102 12.5811 28.1808C12.3678 27.9462 12.2611 27.6022 12.2611 27.1488V25.2688H11.7811C11.5465 25.2688 11.4291 25.1648 11.4291 24.9568C11.4291 24.8608 11.4585 24.7862 11.5171 24.7328C11.5811 24.6742 11.6691 24.6448 11.7811 24.6448H12.2611V23.8208C12.2611 23.6982 12.2958 23.6022 12.3651 23.5328C12.4398 23.4635 12.5385 23.4288 12.6611 23.4288C12.7838 23.4288 12.8825 23.4635 12.9571 23.5328C13.0318 23.6022 13.0691 23.6982 13.0691 23.8208V24.6448H13.8611C13.9731 24.6448 14.0585 24.6742 14.1171 24.7328C14.1811 24.7862 14.2131 24.8608 14.2131 24.9568C14.2131 25.0582 14.1811 25.1355 14.1171 25.1888C14.0585 25.2422 13.9731 25.2688 13.8611 25.2688H13.0691V27.2048C13.0691 27.4555 13.1198 27.6395 13.2211 27.7568C13.3278 27.8742 13.4878 27.9408 13.7011 27.9568L13.9251 27.9728ZM16.4734 24.5488C16.9908 24.5488 17.3748 24.6795 17.6254 24.9408C17.8814 25.2022 18.0094 25.5995 18.0094 26.1328V28.2048C18.0094 28.3275 17.9748 28.4235 17.9054 28.4928C17.8361 28.5568 17.7401 28.5888 17.6174 28.5888C17.5001 28.5888 17.4068 28.5542 17.3374 28.4848C17.2681 28.4155 17.2334 28.3222 17.2334 28.2048V27.9088C17.1321 28.1328 16.9801 28.3062 16.7774 28.4288C16.5801 28.5462 16.3481 28.6048 16.0814 28.6048C15.8254 28.6048 15.5908 28.5542 15.3774 28.4528C15.1694 28.3462 15.0041 28.2022 14.8814 28.0208C14.7588 27.8395 14.6974 27.6342 14.6974 27.4048C14.6921 27.1168 14.7641 26.8928 14.9134 26.7328C15.0628 26.5675 15.3054 26.4502 15.6414 26.3808C15.9774 26.3062 16.4441 26.2688 17.0414 26.2688H17.2254V26.0368C17.2254 25.7382 17.1641 25.5222 17.0414 25.3888C16.9188 25.2555 16.7214 25.1888 16.4494 25.1888C16.2628 25.1888 16.0868 25.2128 15.9214 25.2608C15.7561 25.3088 15.5748 25.3782 15.3774 25.4688C15.2334 25.5488 15.1321 25.5888 15.0734 25.5888C14.9934 25.5888 14.9268 25.5595 14.8734 25.5008C14.8254 25.4422 14.8014 25.3675 14.8014 25.2768C14.8014 25.1968 14.8228 25.1275 14.8654 25.0688C14.9134 25.0048 14.9881 24.9435 15.0894 24.8848C15.2761 24.7835 15.4948 24.7035 15.7454 24.6448C15.9961 24.5808 16.2388 24.5488 16.4734 24.5488ZM16.2254 28.0048C16.5188 28.0048 16.7588 27.9062 16.9454 27.7088C17.1321 27.5062 17.2254 27.2475 17.2254 26.9328V26.7248H17.0814C16.6654 26.7248 16.3454 26.7435 16.1214 26.7808C15.8974 26.8182 15.7374 26.8822 15.6414 26.9728C15.5454 27.0582 15.4974 27.1835 15.4974 27.3488C15.4974 27.5408 15.5668 27.6982 15.7054 27.8208C15.8441 27.9435 16.0174 28.0048 16.2254 28.0048ZM21.1627 24.5648C21.4187 24.5488 21.5467 24.6582 21.5467 24.8928C21.5467 25.0102 21.5174 25.0982 21.4587 25.1568C21.4 25.2155 21.2987 25.2502 21.1547 25.2608L20.9147 25.2848C20.5787 25.3168 20.328 25.4342 20.1627 25.6368C20.0027 25.8395 19.9227 26.0848 19.9227 26.3728V28.2048C19.9227 28.3328 19.8854 28.4288 19.8107 28.4928C19.736 28.5568 19.64 28.5888 19.5227 28.5888C19.4054 28.5888 19.3067 28.5568 19.2267 28.4928C19.152 28.4288 19.1147 28.3328 19.1147 28.2048V24.9488C19.1147 24.8262 19.152 24.7328 19.2267 24.6688C19.3067 24.5995 19.4054 24.5648 19.5227 24.5648C19.6294 24.5648 19.7174 24.5995 19.7867 24.6688C19.8614 24.7328 19.8987 24.8235 19.8987 24.9408V25.3248C20.0054 25.0902 20.16 24.9115 20.3627 24.7888C20.5654 24.6662 20.7947 24.5942 21.0507 24.5728L21.1627 24.5648Z" fill="#747488"/>
<defs>
<clipPath id="clip0_1301_46348">
<rect width="16" height="16" fill="white" transform="translate(3 0.548828)"/>
</clipPath>
</defs>
</svg>
