<svg width="25" height="32" viewBox="0 0 25 32" fill="none" xmlns="http://www.w3.org/2000/svg">
<g clip-path="url(#clip0_1301_46353)">
<path d="M6.75 4.29883L7.59115 13.9721C7.68102 15.0056 8.54622 15.7988 9.58363 15.7988H14.4164C15.4538 15.7988 16.319 15.0056 16.4088 13.9721L17.25 4.29883" stroke="#AE1100" stroke-width="1.5" stroke-linecap="round" stroke-linejoin="round"/>
<path d="M9.75 4.04883V3.29883C9.75 2.19426 10.6454 1.29883 11.75 1.29883H12.25C13.3546 1.29883 14.25 2.19426 14.25 3.29883V4.04883" stroke="#AE1100" stroke-width="1.5" stroke-linecap="round" stroke-linejoin="round"/>
<path d="M5 4.29883H19" stroke="#AE1100" stroke-width="1.5" stroke-linecap="round" stroke-linejoin="round"/>
</g>
<path d="M1.064 28.5488C0.936 28.5488 0.834667 28.5142 0.76 28.4448C0.690667 28.3702 0.656 28.2715 0.656 28.1488V23.3088C0.656 23.1862 0.690667 23.0902 0.76 23.0208C0.834667 22.9462 0.936 22.9088 1.064 22.9088H4.008C4.13067 22.9088 4.224 22.9382 4.288 22.9968C4.35733 23.0555 4.392 23.1382 4.392 23.2448C4.392 23.3515 4.35733 23.4342 4.288 23.4928C4.224 23.5462 4.13067 23.5728 4.008 23.5728H1.464V25.3488H3.848C3.97067 25.3488 4.064 25.3782 4.128 25.4368C4.19733 25.4955 4.232 25.5782 4.232 25.6848C4.232 25.7915 4.19733 25.8742 4.128 25.9328C4.064 25.9915 3.97067 26.0208 3.848 26.0208H1.464V27.8848H4.008C4.264 27.8848 4.392 27.9942 4.392 28.2128C4.392 28.3195 4.35733 28.4022 4.288 28.4608C4.224 28.5195 4.13067 28.5488 4.008 28.5488H1.064ZM8.52769 27.9408C8.60769 28.0208 8.64769 28.1142 8.64769 28.2208C8.64769 28.3222 8.61035 28.4102 8.53569 28.4848C8.46635 28.5542 8.38102 28.5888 8.27969 28.5888C8.17835 28.5888 8.08502 28.5435 7.99969 28.4528L6.77569 27.0768L5.55969 28.4528C5.47435 28.5435 5.38102 28.5888 5.27969 28.5888C5.17835 28.5888 5.09035 28.5515 5.01569 28.4768C4.94635 28.4022 4.91169 28.3142 4.91169 28.2128C4.91169 28.1115 4.94902 28.0208 5.02369 27.9408L6.28769 26.5488L5.08769 25.2128C5.00769 25.1222 4.96769 25.0315 4.96769 24.9408C4.96769 24.8395 5.00502 24.7542 5.07969 24.6848C5.15435 24.6102 5.23969 24.5728 5.33569 24.5728C5.43702 24.5728 5.53035 24.6182 5.61569 24.7088L6.77569 26.0208L7.93569 24.7088C8.02102 24.6182 8.11702 24.5728 8.22369 24.5728C8.31969 24.5728 8.40502 24.6102 8.47969 24.6848C8.55435 24.7542 8.59169 24.8395 8.59169 24.9408C8.59169 25.0422 8.55169 25.1328 8.47169 25.2128L7.27169 26.5488L8.52769 27.9408ZM11.0367 28.6048C10.658 28.6048 10.3247 28.5222 10.0367 28.3568C9.75402 28.1915 9.53269 27.9568 9.37269 27.6528C9.21802 27.3488 9.14069 26.9968 9.14069 26.5968C9.14069 26.1915 9.22069 25.8342 9.38069 25.5248C9.54602 25.2155 9.77535 24.9755 10.0687 24.8048C10.362 24.6342 10.698 24.5488 11.0767 24.5488C11.2794 24.5488 11.482 24.5782 11.6847 24.6368C11.8927 24.6955 12.0767 24.7755 12.2367 24.8768C12.4074 24.9942 12.4927 25.1302 12.4927 25.2848C12.4927 25.3755 12.4687 25.4528 12.4207 25.5168C12.3727 25.5755 12.3114 25.6048 12.2367 25.6048C12.1887 25.6048 12.1407 25.5942 12.0927 25.5728C12.0447 25.5462 11.9834 25.5088 11.9087 25.4608C11.7754 25.3755 11.65 25.3115 11.5327 25.2688C11.4207 25.2208 11.2847 25.1968 11.1247 25.1968C10.762 25.1968 10.4794 25.3195 10.2767 25.5648C10.0794 25.8102 9.98069 26.1515 9.98069 26.5888C9.98069 27.0262 10.0794 27.3648 10.2767 27.6048C10.474 27.8395 10.754 27.9568 11.1167 27.9568C11.2767 27.9568 11.418 27.9328 11.5407 27.8848C11.6634 27.8368 11.7887 27.7728 11.9167 27.6928C11.9754 27.6555 12.034 27.6235 12.0927 27.5968C12.1514 27.5702 12.2047 27.5568 12.2527 27.5568C12.3274 27.5568 12.3887 27.5888 12.4367 27.6528C12.4847 27.7115 12.5087 27.7862 12.5087 27.8768C12.5087 27.9515 12.4874 28.0208 12.4447 28.0848C12.4074 28.1435 12.3407 28.2048 12.2447 28.2688C12.0847 28.3755 11.898 28.4582 11.6847 28.5168C11.4714 28.5755 11.2554 28.6048 11.0367 28.6048ZM13.6399 28.5888C13.5225 28.5888 13.4239 28.5568 13.3439 28.4928C13.2692 28.4288 13.2319 28.3328 13.2319 28.2048V23.2608C13.2319 23.1328 13.2692 23.0368 13.3439 22.9728C13.4239 22.9035 13.5225 22.8688 13.6399 22.8688C13.7572 22.8688 13.8532 22.9035 13.9279 22.9728C14.0025 23.0368 14.0399 23.1328 14.0399 23.2608V28.2048C14.0399 28.3328 14.0025 28.4288 13.9279 28.4928C13.8532 28.5568 13.7572 28.5888 13.6399 28.5888ZM18.1934 24.5648C18.316 24.5648 18.412 24.5995 18.4814 24.6688C18.556 24.7382 18.5934 24.8342 18.5934 24.9568V28.2128C18.5934 28.3248 18.556 28.4155 18.4814 28.4848C18.4067 28.5542 18.308 28.5888 18.1854 28.5888C18.0734 28.5888 17.9827 28.5568 17.9134 28.4928C17.844 28.4235 17.8094 28.3328 17.8094 28.2208V27.9168C17.6867 28.1408 17.516 28.3115 17.2974 28.4288C17.084 28.5462 16.844 28.6048 16.5774 28.6048C15.628 28.6048 15.1534 28.0822 15.1534 27.0368V24.9568C15.1534 24.8342 15.188 24.7382 15.2574 24.6688C15.332 24.5995 15.4334 24.5648 15.5614 24.5648C15.684 24.5648 15.78 24.5995 15.8494 24.6688C15.924 24.7382 15.9614 24.8342 15.9614 24.9568V27.0288C15.9614 27.3435 16.0254 27.5755 16.1534 27.7248C16.2814 27.8742 16.4787 27.9488 16.7454 27.9488C17.06 27.9488 17.3107 27.8475 17.4974 27.6448C17.6894 27.4422 17.7854 27.1728 17.7854 26.8368V24.9568C17.7854 24.8395 17.8227 24.7462 17.8974 24.6768C17.972 24.6022 18.0707 24.5648 18.1934 24.5648ZM20.1321 28.5888C20.0147 28.5888 19.9161 28.5568 19.8361 28.4928C19.7614 28.4288 19.7241 28.3328 19.7241 28.2048V24.9568C19.7241 24.8288 19.7614 24.7328 19.8361 24.6688C19.9161 24.5995 20.0147 24.5648 20.1321 24.5648C20.2494 24.5648 20.3454 24.5995 20.4201 24.6688C20.4947 24.7328 20.5321 24.8288 20.5321 24.9568V28.2048C20.5321 28.3328 20.4947 28.4288 20.4201 28.4928C20.3454 28.5568 20.2494 28.5888 20.1321 28.5888ZM20.1321 23.7808C19.9774 23.7808 19.8547 23.7382 19.7641 23.6528C19.6734 23.5675 19.6281 23.4555 19.6281 23.3168C19.6281 23.1782 19.6734 23.0688 19.7641 22.9888C19.8547 22.9035 19.9774 22.8608 20.1321 22.8608C20.2814 22.8608 20.4014 22.9035 20.4921 22.9888C20.5881 23.0688 20.6361 23.1782 20.6361 23.3168C20.6361 23.4555 20.5907 23.5675 20.5001 23.6528C20.4094 23.7382 20.2867 23.7808 20.1321 23.7808ZM23.7096 24.5648C23.9656 24.5488 24.0936 24.6582 24.0936 24.8928C24.0936 25.0102 24.0642 25.0982 24.0056 25.1568C23.9469 25.2155 23.8456 25.2502 23.7016 25.2608L23.4616 25.2848C23.1256 25.3168 22.8749 25.4342 22.7096 25.6368C22.5496 25.8395 22.4696 26.0848 22.4696 26.3728V28.2048C22.4696 28.3328 22.4322 28.4288 22.3576 28.4928C22.2829 28.5568 22.1869 28.5888 22.0696 28.5888C21.9522 28.5888 21.8536 28.5568 21.7736 28.4928C21.6989 28.4288 21.6616 28.3328 21.6616 28.2048V24.9488C21.6616 24.8262 21.6989 24.7328 21.7736 24.6688C21.8536 24.5995 21.9522 24.5648 22.0696 24.5648C22.1762 24.5648 22.2642 24.5995 22.3336 24.6688C22.4082 24.7328 22.4456 24.8235 22.4456 24.9408V25.3248C22.5522 25.0902 22.7069 24.9115 22.9096 24.7888C23.1122 24.6662 23.3416 24.5942 23.5976 24.5728L23.7096 24.5648Z" fill="#AE1100"/>
<defs>
<clipPath id="clip0_1301_46353">
<rect width="17" height="16" fill="white" transform="translate(4 0.548828)"/>
</clipPath>
</defs>
</svg>
