<svg width="20" height="18" viewBox="0 0 20 18" fill="none" xmlns="http://www.w3.org/2000/svg">
<path fill-rule="evenodd" clip-rule="evenodd" d="M1.05654 0.546853C1.57724 0.0638093 2.42146 0.0638093 2.94216 0.546853L9.99935 7.09369L17.0565 0.546853C17.5772 0.0638093 18.4215 0.0638093 18.9422 0.546853C19.4629 1.0299 19.4629 1.81307 18.9422 2.29611L11.885 8.84295L18.9422 15.3898C19.4629 15.8728 19.4629 16.656 18.9422 17.139C18.4215 17.6221 17.5772 17.6221 17.0565 17.139L9.99935 10.5922L2.94216 17.139C2.42146 17.6221 1.57724 17.6221 1.05654 17.139C0.535841 16.656 0.535841 15.8728 1.05654 15.3898L8.11373 8.84295L1.05654 2.29611C0.535841 1.81307 0.535841 1.0299 1.05654 0.546853Z" fill="#3F3F55"/>
</svg>
