<svg width="35" height="36" viewBox="0 0 35 36" fill="none" xmlns="http://www.w3.org/2000/svg">
<path d="M16.75 19.2988H13.25C12.1454 19.2988 11.25 18.4034 11.25 17.2988V6.79883C11.25 5.69426 12.1454 4.79883 13.25 4.79883H19.5L23.75 9.04883V11.2988" stroke="#DA0175" stroke-width="1.5" stroke-linecap="round" stroke-linejoin="round"/>
<path d="M22.5 14.7988V19.2988" stroke="#DA0175" stroke-width="1.5" stroke-linecap="round" stroke-linejoin="round"/>
<path d="M24.75 17.0488H20.25" stroke="#DA0175" stroke-width="1.5" stroke-linecap="round" stroke-linejoin="round"/>
<path d="M23.5 9.29883H19.25V5.04883" stroke="#DA0175" stroke-width="1.5" stroke-linecap="round" stroke-linejoin="round"/>
<path d="M3.112 32.1128C2.57333 32.1128 2.104 31.9982 1.704 31.7688C1.304 31.5342 0.997333 31.2008 0.784 30.7688C0.570667 30.3315 0.464 29.8168 0.464 29.2248C0.464 28.6382 0.570667 28.1288 0.784 27.6968C0.997333 27.2595 1.304 26.9262 1.704 26.6968C2.104 26.4622 2.57333 26.3448 3.112 26.3448C3.464 26.3448 3.79733 26.4008 4.112 26.5128C4.42667 26.6195 4.70133 26.7768 4.936 26.9848C5.03733 27.0648 5.088 27.1715 5.088 27.3048C5.088 27.4008 5.06133 27.4835 5.008 27.5528C4.95467 27.6168 4.89067 27.6488 4.816 27.6488C4.72533 27.6488 4.63733 27.6142 4.552 27.5448C4.296 27.3528 4.06133 27.2195 3.848 27.1448C3.64 27.0648 3.40267 27.0248 3.136 27.0248C2.54933 27.0248 2.09867 27.2142 1.784 27.5928C1.46933 27.9715 1.312 28.5155 1.312 29.2248C1.312 29.9395 1.46933 30.4862 1.784 30.8648C2.09867 31.2435 2.54933 31.4328 3.136 31.4328C3.392 31.4328 3.624 31.3928 3.832 31.3128C4.04533 31.2328 4.28533 31.0995 4.552 30.9128C4.65867 30.8435 4.74667 30.8088 4.816 30.8088C4.89067 30.8088 4.95467 30.8435 5.008 30.9128C5.06133 30.9768 5.088 31.0568 5.088 31.1528C5.088 31.2862 5.03733 31.3928 4.936 31.4728C4.70133 31.6808 4.42667 31.8408 4.112 31.9528C3.79733 32.0595 3.464 32.1128 3.112 32.1128ZM7.59194 32.1048C7.20794 32.1048 6.86927 32.0222 6.57594 31.8568C6.28794 31.6915 6.06394 31.4568 5.90394 31.1528C5.74927 30.8435 5.67194 30.4862 5.67194 30.0808C5.67194 29.6702 5.74927 29.3128 5.90394 29.0088C6.06394 28.6995 6.28794 28.4622 6.57594 28.2968C6.86927 28.1315 7.20794 28.0488 7.59194 28.0488C7.97594 28.0488 8.31194 28.1315 8.59994 28.2968C8.89327 28.4622 9.11727 28.6995 9.27194 29.0088C9.43194 29.3128 9.51194 29.6702 9.51194 30.0808C9.51194 30.4862 9.43194 30.8435 9.27194 31.1528C9.11727 31.4568 8.89327 31.6915 8.59994 31.8568C8.31194 32.0222 7.97594 32.1048 7.59194 32.1048ZM7.59194 31.4648C7.94927 31.4648 8.22127 31.3475 8.40794 31.1128C8.59994 30.8782 8.69594 30.5342 8.69594 30.0808C8.69594 29.6328 8.59994 29.2915 8.40794 29.0568C8.21594 28.8168 7.94394 28.6968 7.59194 28.6968C7.23994 28.6968 6.96794 28.8168 6.77594 29.0568C6.58394 29.2915 6.48794 29.6328 6.48794 30.0808C6.48794 30.5342 6.58127 30.8782 6.76794 31.1128C6.95994 31.3475 7.2346 31.4648 7.59194 31.4648ZM12.5076 28.0488C12.8489 28.0488 13.1502 28.1315 13.4116 28.2968C13.6729 28.4622 13.8756 28.6968 14.0196 29.0008C14.1689 29.3048 14.2436 29.6595 14.2436 30.0648C14.2436 30.4648 14.1689 30.8195 14.0196 31.1288C13.8756 31.4382 13.6702 31.6782 13.4036 31.8488C13.1422 32.0195 12.8436 32.1048 12.5076 32.1048C12.2142 32.1048 11.9556 32.0435 11.7316 31.9208C11.5076 31.7928 11.3369 31.6115 11.2196 31.3768V31.6968C11.2196 31.8142 11.1822 31.9102 11.1076 31.9848C11.0382 32.0542 10.9422 32.0888 10.8196 32.0888C10.6969 32.0888 10.5982 32.0542 10.5236 31.9848C10.4489 31.9102 10.4116 31.8142 10.4116 31.6968V26.7528C10.4116 26.6355 10.4489 26.5422 10.5236 26.4728C10.6036 26.4035 10.7049 26.3688 10.8276 26.3688C10.9449 26.3688 11.0382 26.4035 11.1076 26.4728C11.1822 26.5368 11.2196 26.6248 11.2196 26.7368V28.7848C11.3369 28.5502 11.5076 28.3688 11.7316 28.2408C11.9556 28.1128 12.2142 28.0488 12.5076 28.0488ZM12.3156 31.4648C12.6622 31.4648 12.9316 31.3422 13.1236 31.0968C13.3209 30.8515 13.4196 30.5075 13.4196 30.0648C13.4196 29.6275 13.3236 29.2915 13.1316 29.0568C12.9396 28.8168 12.6676 28.6968 12.3156 28.6968C11.9636 28.6968 11.6916 28.8168 11.4996 29.0568C11.3129 29.2968 11.2196 29.6382 11.2196 30.0808C11.2196 30.5235 11.3129 30.8648 11.4996 31.1048C11.6916 31.3448 11.9636 31.4648 12.3156 31.4648ZM17.1861 28.0648C17.4421 28.0488 17.5701 28.1582 17.5701 28.3928C17.5701 28.5102 17.5408 28.5982 17.4821 28.6568C17.4235 28.7155 17.3221 28.7502 17.1781 28.7608L16.9381 28.7848C16.6021 28.8168 16.3515 28.9342 16.1861 29.1368C16.0261 29.3395 15.9461 29.5848 15.9461 29.8728V31.7048C15.9461 31.8328 15.9088 31.9288 15.8341 31.9928C15.7595 32.0568 15.6635 32.0888 15.5461 32.0888C15.4288 32.0888 15.3301 32.0568 15.2501 31.9928C15.1755 31.9288 15.1381 31.8328 15.1381 31.7048V28.4488C15.1381 28.3262 15.1755 28.2328 15.2501 28.1688C15.3301 28.0995 15.4288 28.0648 15.5461 28.0648C15.6528 28.0648 15.7408 28.0995 15.8101 28.1688C15.8848 28.2328 15.9221 28.3235 15.9221 28.4408V28.8248C16.0288 28.5902 16.1835 28.4115 16.3861 28.2888C16.5888 28.1662 16.8181 28.0942 17.0741 28.0728L17.1861 28.0648ZM19.6844 28.0488C20.2017 28.0488 20.5857 28.1795 20.8364 28.4408C21.0924 28.7022 21.2204 29.0995 21.2204 29.6328V31.7048C21.2204 31.8275 21.1857 31.9235 21.1164 31.9928C21.047 32.0568 20.951 32.0888 20.8284 32.0888C20.711 32.0888 20.6177 32.0542 20.5484 31.9848C20.479 31.9155 20.4444 31.8222 20.4444 31.7048V31.4088C20.343 31.6328 20.191 31.8062 19.9884 31.9288C19.791 32.0462 19.559 32.1048 19.2924 32.1048C19.0364 32.1048 18.8017 32.0542 18.5884 31.9528C18.3804 31.8462 18.215 31.7022 18.0924 31.5208C17.9697 31.3395 17.9084 31.1342 17.9084 30.9048C17.903 30.6168 17.975 30.3928 18.1244 30.2328C18.2737 30.0675 18.5164 29.9502 18.8524 29.8808C19.1884 29.8062 19.655 29.7688 20.2524 29.7688H20.4364V29.5368C20.4364 29.2382 20.375 29.0222 20.2524 28.8888C20.1297 28.7555 19.9324 28.6888 19.6604 28.6888C19.4737 28.6888 19.2977 28.7128 19.1324 28.7608C18.967 28.8088 18.7857 28.8782 18.5884 28.9688C18.4444 29.0488 18.343 29.0888 18.2844 29.0888C18.2044 29.0888 18.1377 29.0595 18.0844 29.0008C18.0364 28.9422 18.0124 28.8675 18.0124 28.7768C18.0124 28.6968 18.0337 28.6275 18.0764 28.5688C18.1244 28.5048 18.199 28.4435 18.3004 28.3848C18.487 28.2835 18.7057 28.2035 18.9564 28.1448C19.207 28.0808 19.4497 28.0488 19.6844 28.0488ZM19.4364 31.5048C19.7297 31.5048 19.9697 31.4062 20.1564 31.2088C20.343 31.0062 20.4364 30.7475 20.4364 30.4328V30.2248H20.2924C19.8764 30.2248 19.5564 30.2435 19.3324 30.2808C19.1084 30.3182 18.9484 30.3822 18.8524 30.4728C18.7564 30.5582 18.7084 30.6835 18.7084 30.8488C18.7084 31.0408 18.7777 31.1982 18.9164 31.3208C19.055 31.4435 19.2284 31.5048 19.4364 31.5048ZM24.4296 28.0488C25.363 28.0488 25.8296 28.5742 25.8296 29.6248V31.7048C25.8296 31.8275 25.7923 31.9235 25.7176 31.9928C25.6483 32.0568 25.5496 32.0888 25.4216 32.0888C25.299 32.0888 25.2003 32.0542 25.1256 31.9848C25.0563 31.9155 25.0216 31.8222 25.0216 31.7048V29.6648C25.0216 29.3342 24.955 29.0915 24.8216 28.9368C24.6936 28.7822 24.491 28.7048 24.2136 28.7048C23.8883 28.7048 23.627 28.8062 23.4296 29.0088C23.2323 29.2115 23.1336 29.4835 23.1336 29.8248V31.7048C23.1336 31.8222 23.0963 31.9155 23.0216 31.9848C22.9523 32.0542 22.8563 32.0888 22.7336 32.0888C22.611 32.0888 22.5123 32.0542 22.4376 31.9848C22.363 31.9155 22.3256 31.8222 22.3256 31.7048V28.4488C22.3256 28.3368 22.363 28.2462 22.4376 28.1768C22.5176 28.1022 22.6163 28.0648 22.7336 28.0648C22.851 28.0648 22.9443 28.0995 23.0136 28.1688C23.083 28.2382 23.1176 28.3288 23.1176 28.4408V28.7688C23.2456 28.5342 23.4243 28.3555 23.6536 28.2328C23.883 28.1102 24.1416 28.0488 24.4296 28.0488ZM29.823 31.0568C29.8977 31.0568 29.959 31.0888 30.007 31.1528C30.055 31.2115 30.079 31.2862 30.079 31.3768C30.079 31.4515 30.0577 31.5208 30.015 31.5848C29.9777 31.6435 29.911 31.7048 29.815 31.7688C29.6763 31.8595 29.5163 31.9342 29.335 31.9928C29.1537 32.0515 28.9697 32.0862 28.783 32.0968L28.743 32.4008C28.8177 32.3848 28.8843 32.3768 28.943 32.3768C29.1083 32.3768 29.247 32.4248 29.359 32.5208C29.4763 32.6168 29.535 32.7528 29.535 32.9288C29.535 33.1262 29.4497 33.2862 29.279 33.4088C29.1083 33.5368 28.8657 33.6008 28.551 33.6008C28.343 33.6008 28.159 33.5715 27.999 33.5128C27.903 33.4755 27.855 33.4088 27.855 33.3128C27.855 33.2488 27.8763 33.1955 27.919 33.1528C27.967 33.1102 28.0283 33.0995 28.103 33.1208C28.263 33.1635 28.4123 33.1848 28.551 33.1848C28.6897 33.1848 28.7963 33.1635 28.871 33.1208C28.9457 33.0782 28.983 33.0142 28.983 32.9288C28.983 32.8648 28.9617 32.8142 28.919 32.7768C28.8817 32.7448 28.8257 32.7288 28.751 32.7288C28.6977 32.7288 28.6257 32.7395 28.535 32.7608C28.4443 32.7822 28.3883 32.7928 28.367 32.7928C28.3243 32.7928 28.2843 32.7768 28.247 32.7448C28.215 32.7182 28.2017 32.6808 28.207 32.6328L28.271 32.0808C27.791 32.0062 27.4097 31.7928 27.127 31.4408C26.8497 31.0888 26.711 30.6408 26.711 30.0968C26.711 29.6915 26.791 29.3342 26.951 29.0248C27.1163 28.7155 27.3457 28.4755 27.639 28.3048C27.9323 28.1342 28.2683 28.0488 28.647 28.0488C28.8497 28.0488 29.0523 28.0782 29.255 28.1368C29.463 28.1955 29.647 28.2755 29.807 28.3768C29.9777 28.4942 30.063 28.6302 30.063 28.7848C30.063 28.8755 30.039 28.9528 29.991 29.0168C29.943 29.0755 29.8817 29.1048 29.807 29.1048C29.759 29.1048 29.711 29.0942 29.663 29.0728C29.615 29.0462 29.5537 29.0088 29.479 28.9608C29.3457 28.8755 29.2203 28.8115 29.103 28.7688C28.991 28.7208 28.855 28.6968 28.695 28.6968C28.3323 28.6968 28.0497 28.8195 27.847 29.0648C27.6497 29.3102 27.551 29.6515 27.551 30.0888C27.551 30.5262 27.6497 30.8648 27.847 31.1048C28.0443 31.3395 28.3243 31.4568 28.687 31.4568C28.847 31.4568 28.9883 31.4328 29.111 31.3848C29.2337 31.3368 29.359 31.2728 29.487 31.1928C29.5457 31.1555 29.6043 31.1235 29.663 31.0968C29.7217 31.0702 29.775 31.0568 29.823 31.0568ZM32.4422 28.0488C32.9595 28.0488 33.3435 28.1795 33.5942 28.4408C33.8502 28.7022 33.9782 29.0995 33.9782 29.6328V31.7048C33.9782 31.8275 33.9435 31.9235 33.8742 31.9928C33.8049 32.0568 33.7089 32.0888 33.5862 32.0888C33.4689 32.0888 33.3755 32.0542 33.3062 31.9848C33.2369 31.9155 33.2022 31.8222 33.2022 31.7048V31.4088C33.1009 31.6328 32.9489 31.8062 32.7462 31.9288C32.5489 32.0462 32.3169 32.1048 32.0502 32.1048C31.7942 32.1048 31.5595 32.0542 31.3462 31.9528C31.1382 31.8462 30.9729 31.7022 30.8502 31.5208C30.7275 31.3395 30.6662 31.1342 30.6662 30.9048C30.6609 30.6168 30.7329 30.3928 30.8822 30.2328C31.0315 30.0675 31.2742 29.9502 31.6102 29.8808C31.9462 29.8062 32.4129 29.7688 33.0102 29.7688H33.1942V29.5368C33.1942 29.2382 33.1329 29.0222 33.0102 28.8888C32.8875 28.7555 32.6902 28.6888 32.4182 28.6888C32.2315 28.6888 32.0555 28.7128 31.8902 28.7608C31.7249 28.8088 31.5435 28.8782 31.3462 28.9688C31.2022 29.0488 31.1009 29.0888 31.0422 29.0888C30.9622 29.0888 30.8955 29.0595 30.8422 29.0008C30.7942 28.9422 30.7702 28.8675 30.7702 28.7768C30.7702 28.6968 30.7915 28.6275 30.8342 28.5688C30.8822 28.5048 30.9569 28.4435 31.0582 28.3848C31.2449 28.2835 31.4635 28.2035 31.7142 28.1448C31.9649 28.0808 32.2075 28.0488 32.4422 28.0488ZM32.1942 31.5048C32.4875 31.5048 32.7275 31.4062 32.9142 31.2088C33.1009 31.0062 33.1942 30.7475 33.1942 30.4328V30.2248H33.0502C32.6342 30.2248 32.3142 30.2435 32.0902 30.2808C31.8662 30.3182 31.7062 30.3822 31.6102 30.4728C31.5142 30.5582 31.4662 30.6835 31.4662 30.8488C31.4662 31.0408 31.5355 31.1982 31.6742 31.3208C31.8129 31.4435 31.9862 31.5048 32.1942 31.5048Z" fill="#DA0175"/>
</svg>
