<svg width="40" height="41" viewBox="0 0 40 41" fill="none" xmlns="http://www.w3.org/2000/svg">
<path d="M0 10.5C0 4.97715 4.47715 0.5 10 0.5H30C35.5228 0.5 40 4.97715 40 10.5V30.5C40 36.0228 35.5228 40.5 30 40.5H10C4.47715 40.5 0 36.0228 0 30.5V10.5Z" fill="white"/>
<path d="M9.4541 13.3691H13.0905" stroke="#DA0175" stroke-width="1.5" stroke-linecap="round" stroke-linejoin="round"/>
<path d="M9.4541 27.9785H13.0905" stroke="#DA0175" stroke-width="1.5" stroke-linecap="round" stroke-linejoin="round"/>
<path d="M21.0908 13.3691H30.5454" stroke="#DA0175" stroke-width="1.5" stroke-linecap="round" stroke-linejoin="round"/>
<path d="M21.0908 27.9785H30.5454" stroke="#DA0175" stroke-width="1.5" stroke-linecap="round" stroke-linejoin="round"/>
<path d="M9.4541 20.6738H20.3632" stroke="#DA0175" stroke-width="1.5" stroke-linecap="round" stroke-linejoin="round"/>
<path d="M28.3633 20.6738H30.5451" stroke="#DA0175" stroke-width="1.5" stroke-linecap="round" stroke-linejoin="round"/>
<path d="M17.0911 16.5001C18.8986 16.5001 20.3638 15.0986 20.3638 13.3697C20.3638 11.6408 18.8986 10.2393 17.0911 10.2393C15.2836 10.2393 13.8184 11.6408 13.8184 13.3697C13.8184 15.0986 15.2836 16.5001 17.0911 16.5001Z" stroke="#DA0175" stroke-width="1.5" stroke-linecap="round" stroke-linejoin="round"/>
<path d="M17.0911 31.1085C18.8986 31.1085 20.3638 29.707 20.3638 27.9781C20.3638 26.2492 18.8986 24.8477 17.0911 24.8477C15.2836 24.8477 13.8184 26.2492 13.8184 27.9781C13.8184 29.707 15.2836 31.1085 17.0911 31.1085Z" stroke="#DA0175" stroke-width="1.5" stroke-linecap="round" stroke-linejoin="round"/>
<path d="M24.3635 23.8038C26.171 23.8038 27.6363 22.4023 27.6363 20.6734C27.6363 18.9445 26.171 17.543 24.3635 17.543C22.5561 17.543 21.0908 18.9445 21.0908 20.6734C21.0908 22.4023 22.5561 23.8038 24.3635 23.8038Z" stroke="#DA0175" stroke-width="1.5" stroke-linecap="round" stroke-linejoin="round"/>
</svg>
