<svg width="20" height="20" viewBox="0 0 20 20" fill="none" xmlns="http://www.w3.org/2000/svg">
<path fill-rule="evenodd" clip-rule="evenodd" d="M1.32216 0.764365C1.84286 0.243666 2.68708 0.243666 3.20778 0.764365L10.265 7.82156L17.3222 0.764365C17.8429 0.243666 18.6871 0.243666 19.2078 0.764365C19.7285 1.28506 19.7285 2.12928 19.2078 2.64998L12.1506 9.70717L19.2078 16.7644C19.7285 17.2851 19.7285 18.1293 19.2078 18.65C18.6871 19.1707 17.8429 19.1707 17.3222 18.65L10.265 11.5928L3.20778 18.65C2.68708 19.1707 1.84286 19.1707 1.32216 18.65C0.801466 18.1293 0.801466 17.2851 1.32216 16.7644L8.37936 9.70717L1.32216 2.64998C0.801466 2.12928 0.801466 1.28506 1.32216 0.764365Z" fill="#3F3F55"/>
</svg>
