<svg width="49" height="49" viewBox="0 0 49 49" fill="none" xmlns="http://www.w3.org/2000/svg">
<path d="M12.0638 39H26.937C28.066 39 28.9544 38.0634 28.7294 36.957C28.1084 33.9024 26.0798 28.5 19.5004 28.5C12.921 28.5 10.8925 33.9024 10.2714 36.957C10.0464 38.0634 10.9348 39 12.0638 39Z" stroke="#DA0175" stroke-width="1.5" stroke-linecap="round" stroke-linejoin="round"/>
<path d="M32 28.5C36.1576 28.5 37.8604 32.7958 38.5478 35.892C38.919 37.564 37.5666 39 35.8538 39H34" stroke="#DA0175" stroke-width="1.5" stroke-linecap="round" stroke-linejoin="round"/>
<path d="M19.5 21C22.5376 21 25 18.5376 25 15.5C25 12.4624 22.5376 10 19.5 10C16.4624 10 14 12.4624 14 15.5C14 18.5376 16.4624 21 19.5 21Z" stroke="#DA0175" stroke-width="1.5" stroke-linecap="round" stroke-linejoin="round"/>
<path d="M30 21C33.0376 21 35 18.5376 35 15.5C35 12.4624 33.0376 10 30 10" stroke="#DA0175" stroke-width="1.5" stroke-linecap="round" stroke-linejoin="round"/>
</svg>
