<?xml version="1.0" standalone="no"?>
<!DOCTYPE svg PUBLIC "-//W3C//DTD SVG 20010904//EN"
 "http://www.w3.org/TR/2001/REC-SVG-20010904/DTD/svg10.dtd">
<svg version="1.0" xmlns="http://www.w3.org/2000/svg"
 width="48" height="48" viewBox="0 0 1920.000000 1920.000000"
 preserveAspectRatio="xMidYMid meet">

<g transform="translate(0.000000,1920.000000) scale(0.100000,-0.100000)"
fill="#000000" stroke="none">
<path d="M9445 14064 c-359 -36 -604 -102 -880 -239 -255 -126 -444 -264 -646
-472 -571 -588 -789 -1400 -593 -2203 170 -692 698 -1311 1350 -1581 54 -23
103 -44 107 -49 4 -4 -32 -15 -80 -24 -484 -96 -1018 -317 -1458 -604 -868
-565 -1522 -1451 -1800 -2437 -100 -354 -165 -800 -165 -1131 0 -78 3 -96 23
-125 58 -87 178 -88 234 -2 14 21 19 60 25 201 27 670 193 1274 500 1827 317
569 769 1057 1314 1417 548 362 1100 562 1784 645 203 25 677 25 880 0 403
-49 702 -123 1060 -264 558 -219 1109 -605 1506 -1055 336 -381 579 -771 749
-1203 174 -442 263 -869 283 -1367 6 -141 11 -180 25 -201 56 -86 176 -85 234
2 20 29 23 47 23 125 0 185 -30 496 -70 716 -192 1073 -787 2033 -1665 2690
-505 378 -1108 651 -1688 766 -48 9 -84 20 -80 24 4 4 58 29 118 54 365 154
713 433 963 775 381 519 528 1194 401 1836 -121 607 -487 1149 -1014 1500
-270 179 -623 312 -960 361 -100 14 -404 26 -480 18z m395 -288 c476 -60 887
-261 1220 -595 636 -640 788 -1598 379 -2396 -310 -605 -901 -1022 -1572
-1110 -1115 -145 -2146 636 -2312 1750 -80 542 61 1091 399 1545 201 269 518
519 825 648 351 148 710 202 1061 158z"/>
<path d="M9774 13336 c-90 -40 -109 -166 -34 -229 15 -13 59 -32 97 -41 190
-47 358 -119 508 -218 97 -65 268 -227 345 -328 118 -155 202 -313 262 -494
22 -66 46 -131 54 -143 39 -61 149 -70 205 -17 61 58 56 125 -22 329 -225 584
-696 1004 -1279 1140 -79 18 -96 18 -136 1z"/>
</g>
</svg>