<svg width="32" height="33" viewBox="0 0 32 33" fill="none" xmlns="http://www.w3.org/2000/svg">
<path d="M7.70852 26.2744H17.624C18.3767 26.2744 18.969 25.65 18.819 24.9124C18.405 22.876 17.0526 19.2744 12.6663 19.2744C8.28003 19.2744 6.92768 22.876 6.5136 24.9124C6.36362 25.65 6.95586 26.2744 7.70852 26.2744Z" stroke="#3F3F55" stroke-width="1.5" stroke-linecap="round" stroke-linejoin="round"/>
<path d="M21 19.2744C23.7717 19.2744 24.9069 22.1383 25.3652 24.2024C25.6127 25.3171 24.7111 26.2744 23.5692 26.2744H22.3333" stroke="#3F3F55" stroke-width="1.5" stroke-linecap="round" stroke-linejoin="round"/>
<path d="M12.6667 14.2738C14.6917 14.2738 16.3333 12.6321 16.3333 10.6071C16.3333 8.58205 14.6917 6.94043 12.6667 6.94043C10.6416 6.94043 9 8.58205 9 10.6071C9 12.6321 10.6416 14.2738 12.6667 14.2738Z" stroke="#3F3F55" stroke-width="1.5" stroke-linecap="round" stroke-linejoin="round"/>
<path d="M19.666 14.2738C21.6911 14.2738 22.9993 12.6321 22.9993 10.6071C22.9993 8.58206 21.6911 6.94043 19.666 6.94043" stroke="#3F3F55" stroke-width="1.5" stroke-linecap="round" stroke-linejoin="round"/>
</svg>
