<svg width="33" height="32" viewBox="0 0 33 32" fill="none" xmlns="http://www.w3.org/2000/svg">
<path d="M8.20852 25.6667H18.124C18.8767 25.6667 19.469 25.0423 19.319 24.3047C18.905 22.2683 17.5526 18.6667 13.1663 18.6667C8.78003 18.6667 7.42768 22.2683 7.0136 24.3047C6.86362 25.0423 7.45586 25.6667 8.20852 25.6667Z" stroke="#3F3F55" stroke-width="1.5" stroke-linecap="round" stroke-linejoin="round"/>
<path d="M21.5 18.6667C24.2717 18.6667 25.4069 21.5306 25.8652 23.5947C26.1127 24.7094 25.2111 25.6667 24.0692 25.6667H22.8333" stroke="#3F3F55" stroke-width="1.5" stroke-linecap="round" stroke-linejoin="round"/>
<path d="M13.1667 13.6666C15.1917 13.6666 16.8333 12.025 16.8333 9.99992C16.8333 7.97487 15.1917 6.33325 13.1667 6.33325C11.1416 6.33325 9.5 7.97487 9.5 9.99992C9.5 12.025 11.1416 13.6666 13.1667 13.6666Z" stroke="#3F3F55" stroke-width="1.5" stroke-linecap="round" stroke-linejoin="round"/>
<path d="M20.167 13.6666C22.1921 13.6666 23.5003 12.025 23.5003 9.99992C23.5003 7.97488 22.1921 6.33325 20.167 6.33325" stroke="#3F3F55" stroke-width="1.5" stroke-linecap="round" stroke-linejoin="round"/>
</svg>
